<svg color="#6fa8ff" viewBox="0 0 480 420" xmlns="http://www.w3.org/2000/svg" fill="none" stroke="currentColor">
  <g stroke-width="1.1" opacity="0.85">
    <!-- Window Container -->
    <rect x="40" y="40" width="400" height="340" rx="12" stroke-width="1.2" />
    
    <!-- Window Header / Title Bar -->
    <line x1="40" y1="90" x2="440" y2="90" stroke-width="1" opacity="0.7" />
    
    <!-- Window Buttons (Minimize, Maximize, Close) -->
    <circle cx="75" cy="65" r="6" stroke-width="1" />
    <circle cx="95" cy="65" r="6" stroke-width="1" />
    <circle cx="115" cy="65" r="6" stroke-width="1" />
    
    <!-- Active Document Tab -->
    <rect x="150" y="52" width="100" height="38" rx="4" stroke-width="1" opacity="0.8" />
    <line x1="170" y1="71" x2="220" y2="71" stroke-width="1" opacity="0.8" />
    <path d="M232 67 L238 73 M238 67 L232 73" stroke-width="0.8" opacity="0.6" /> <!-- Close Tab 'X' -->

    <!-- Sidebar / File Tree Panel -->
    <line x1="140" y1="90" x2="140" y2="380" stroke-width="1" opacity="0.7" />
    
    <!-- Sidebar Items -->
    <!-- Folder Icon -->
    <path d="M55 122 H68 L73 117 H95 V130 H55 Z" stroke-width="0.8" opacity="0.5" />
    <line x1="103" y1="124" x2="130" y2="124" stroke-width="0.8" opacity="0.5" />
    
    <!-- Indented File Icons / Items -->
    <line x1="65" y1="148" x2="65" y2="280" stroke-width="0.8" stroke-dasharray="2,2" opacity="0.4" /> <!-- Guide Line -->
    
    <!-- File Item 1 -->
    <path d="M72 153 H85 L89 157 V165 H72 Z" stroke-width="0.8" opacity="0.5" />
    <line x1="97" y1="159" x2="125" y2="159" stroke-width="0.8" opacity="0.5" />
    
    <!-- File Item 2 (Active/Target) -->
    <path d="M72 189 H85 L89 193 V201 H72 Z" stroke-width="0.8" opacity="0.8" />
    <line x1="97" y1="195" x2="130" y2="195" stroke-width="1" opacity="0.9" />
    <circle cx="134" cy="195" r="1.5" fill="currentColor" /> <!-- Green/Active dot -->

    <!-- File Item 3 -->
    <path d="M72 225 H85 L89 229 V237 H72 Z" stroke-width="0.8" opacity="0.5" />
    <line x1="97" y1="231" x2="120" y2="231" stroke-width="0.8" opacity="0.5" />

    <!-- File Item 4 -->
    <path d="M72 261 H85 L89 265 V273 H72 Z" stroke-width="0.8" opacity="0.5" />
    <line x1="97" y1="267" x2="122" y2="267" stroke-width="0.8" opacity="0.5" />

    <!-- Main Editor: Code Content -->
    <!-- Line 1: class Solution { -->
    <path d="M165 125 H245" stroke-width="1.8" />
    <path d="M255 125 H335" stroke-width="1.8" opacity="0.6" />
    <path d="M345 125 H355" stroke-width="1.8" />
    
    <!-- Line 2:   async execute(pipeline) { -->
    <path d="M190 160 H235" stroke-width="1.8" opacity="0.6" />
    <path d="M245 160 H315" stroke-width="1.8" />
    <path d="M325 160 H385" stroke-width="1.8" opacity="0.4" />
    <path d="M395 160 H405" stroke-width="1.8" />

    <!-- Line 3:     const data = await fetch(); -->
    <path d="M215 195 H255" stroke-width="1.8" opacity="0.5" />
    <path d="M265 195 H300" stroke-width="1.8" />
    <path d="M310 195 H325" stroke-width="1.8" opacity="0.8" />
    <path d="M335 195 H415" stroke-width="1.8" />

    <!-- Line 4:     if (!data.ok) return error; -->
    <path d="M215 230 H230" stroke-width="1.8" opacity="0.5" />
    <path d="M240 230 H320" stroke-width="1.8" />
    <path d="M330 230 H375" stroke-width="1.8" opacity="0.7" />
    
    <!-- Line 5:     const result = pipeline.run(data); -->
    <path d="M215 265 H255" stroke-width="1.8" opacity="0.5" />
    <path d="M265 265 H310" stroke-width="1.8" />
    <path d="M320 265 H425" stroke-width="1.8" />

    <!-- Line 6:     return result; -->
    <path d="M215 300 H260" stroke-width="1.8" opacity="0.8" />
    <path d="M270 300 H315" stroke-width="1.8" />

    <!-- Line 7:   } -->
    <path d="M190 335 H198" stroke-width="1.8" />

    <!-- Line 8: } -->
    <path d="M165 370 H173" stroke-width="1.8" />
  </g>
</svg>